<svg xmlns="http://www.w3.org/2000/svg" viewBox="0 0 24.85 62.49"><defs><style>.cls-1{fill:#f6cdb3;}</style></defs><title>Asset 12</title><g id="Layer_2" data-name="Layer 2"><g id="Layer_1-2" data-name="Layer 1"><path class="cls-1" d="M21.21,34.6,20,21h-.71a8.15,8.15,0,0,0-.17,1.17c0,3-.05,5.91,0,8.86,0,1.19-.31,1.7-1.59,1.68q-5.14-.1-10.28,0c-1.3,0-1.59-.54-1.58-1.7.05-3.35,0-6.7-.21-10.06C3.78,25.27,4,29.84,3.92,34.58a14.45,14.45,0,0,1-2.81-.31A1.78,1.78,0,0,1,0,33c-.1-4.91,0-9.82,1.69-14.53,1.18-3.31,3.35-4.95,6.42-4.77.54,0,1,.64,1.56,1,.08.06.07.24.15.31l2.64,2.7A13,13,0,0,0,15.06,15a2.07,2.07,0,0,1,2.29-1.33c3,.11,4.5,2.09,5.48,4.4,2,4.84,2.09,10,2,15.17,0,.35-.55.88-.94,1A18.88,18.88,0,0,1,21.21,34.6Z" transform="translate(0 0)"/><path class="cls-1" d="M12.13,36.35a12.33,12.33,0,0,0-.28,1.84c0,6.8,0,13.6,0,20.4,0,1-.15,2.24-.76,2.76a4,4,0,0,1-3.13.9,3.94,3.94,0,0,1-2.06-2.48,15.05,15.05,0,0,1-.14-4.05c0-6.68,0-13.36,0-20,0-1.49.47-1.93,1.93-1.89,3.31.09,6.62.07,9.93,0,1.26,0,1.62.44,1.61,1.65,0,7.8,0,15.61,0,23.41,0,2.35-1.09,3.61-3,3.63S13,61.16,13,58.85c0-6.8,0-13.6,0-20.4q0-1,0-2Z" transform="translate(0 0)"/><path class="cls-1" d="M18.45,6a5.91,5.91,0,0,1-6,6.08,5.9,5.9,0,0,1-6-5.89A5.9,5.9,0,0,1,12.32,0,5.91,5.91,0,0,1,18.45,6Z" transform="translate(0 0)"/><path class="cls-1" d="M24.61,35.15c.45,2.53-.11,4-1.6,4.18-1.33.17-2.2-.74-2.21-2.32S21.54,34.93,24.61,35.15Z" transform="translate(0 0)"/><path class="cls-1" d="M.14,34.69c1.42.47,2.8.64,3.72,1.38.36.29-.13,2-.61,2.8-.21.36-1.52.48-2,.19C-.37,38.18.09,36.6.14,34.69Z" transform="translate(0 0)"/></g></g></svg>