<svg xmlns="http://www.w3.org/2000/svg" viewBox="0 0 63.01 64.31"><defs><style>.cls-1{fill:#f6cdb3;}</style></defs><title>Asset 8</title><g id="Layer_2" data-name="Layer 2"><g id="Layer_1-2" data-name="Layer 1"><path class="cls-1" d="M.1,32.06a57.91,57.91,0,0,0,0-6c-.41-4,1.1-7.34,3.12-10.49C10.71,3.83,21.55-1.43,35.3.33,46.18,1.73,54.25,7.74,59.4,17.5a30.25,30.25,0,0,1,3.21,19.24A31.45,31.45,0,0,1,48.35,59a30.73,30.73,0,0,1-23.69,4.67c-10.33-2.07-18-7.94-22.79-17.4A15.49,15.49,0,0,1,.08,38.08C.2,36.08.1,34.07.1,32.06ZM52.85,11.51c.3-.65.64-1,.56-1.27-.48-1.47-4-3-5.15-2a28.72,28.72,0,0,0-4.06,4.56c-.26.32,0,1.07.07,1.63l.45-.32,1.7,1.37c-2.31-.32-1.9,2.46-3.35,2.51l-2-3.7-.57.24c.24,1.42-.58,3,.67,3.87a12.54,12.54,0,0,0,.32,1.89c.33.89.45,1.43-.88,1.36a2.1,2.1,0,0,0-1.54,1.07c-.86,1.74.46,2.07,1.59,2.16a35.49,35.49,0,0,1-3,3.82c-1.34,1.33-2.07,5.86-1.21,7.54,1.29,2.52,3.36,2.57,5.7,2.24,2.07-.29,2.92.44,3.31,2.46.44,2.28,1.63,4.48.6,6.89-.09.22.1.57.17.86.32,1.38.67,2.75,1,4.14.44,2.12,2.1,2.87,3.39,1.16,2.32-3.1,5.52-5.92,5.13-10.4a3.25,3.25,0,0,1,1.08-2.79c1.23-1.26,2.75-2.48,2.5-4.69l-2.06-.16a14.9,14.9,0,0,1,1.84-1.3c2.78-1.31,3.15-4,2.92-6.38A29.59,29.59,0,0,0,56.6,14C55.76,12.85,55.17,11,52.85,11.51ZM3.45,29.22,3.89,29c.1,3.81,3.2,4.38,5.56,5.79a41.48,41.48,0,0,1,3.43,2.46c1,.75,1.15,1.58.18,2.49-1.19,1.11-.83,2.4-.23,3.58a11.66,11.66,0,0,0,1.77,2.42A8.31,8.31,0,0,1,17,52.65c-.24,1.7-.48,3.39-.64,5.1-.2,2.15.39,2.87,2.54,3.25.08-.19.26-.4.25-.6C19,57.51,21.28,56.16,23,54.46a5.93,5.93,0,0,0,.9-1.07c.8-1.31,1.11-3,2.9-3.52.17,0,.3-.36.37-.57.57-1.6,1.07-3.23,1.69-4.81.53-1.34.33-2-1.15-2.69-1.63-.71-3.92-.78-4.36-3.24,0-.26-.68-.41-1-.63A9.87,9.87,0,0,0,20,36.38c-1.59-.48-3.48-1.29-4.86-.83-2.41.82-3.14.71-3.29-2-2.37.09-.95-1.44-.84-2.69a11.48,11.48,0,0,0-1.39.52,1.42,1.42,0,0,1-2.27-1.1c-.09-1.76,1.28-2.43,2.58-3a1.64,1.64,0,0,1,2.48,1.16c.1.3.51.51.85.82a11.62,11.62,0,0,1,7.32-8.9c-2-3,1.43-1.48,1.81-2.47l-.52,1.33,2.26.47a8.52,8.52,0,0,0-.35-1.47c-.8-1.7-1.65-3.38-2.38-4.87a6,6,0,0,1-1.84-.43,19,19,0,0,1-2.08-1.8l-1.93,5.24a18.71,18.71,0,0,0-2.2-1.57c-.85-.42-2.05-.73-1.49-1.9s1.12-2.44,2.91-1.78c.36.13.95-.35,1.43-.55-1-1.08.55-1.43.68-2.2.05-.3.59-.79.7-.74a2.68,2.68,0,0,1,1.18.92c.14.23-.05.77-.24,1.07s-.53.39-1.12.79c1.19.49,2.22,1.29,3,1.12S21.68,10.16,22.6,9a28,28,0,0,0-4.23-3.28c-.81-.43-2.11.09-3.19.18.1.67.21,1.33.29,2,0,.09-.12.19-.3.48L13.36,7.09c-1,.6-1.9,1.14-2.8,1.69a15.42,15.42,0,0,0-2.71,1.75A30.25,30.25,0,0,0,1.19,21.07c-1,2.44-.06,6.82,2,8.8ZM20.75,2.7a11.75,11.75,0,0,0,2,1.22,3.26,3.26,0,0,1,2.6,3.62,14,14,0,0,0,1.08,4.85.92.92,0,0,0,1.78,0c1.13-2.61,3.49-3.35,5.84-4.18.74-.26,1.33-.42,1.45-1.6A29.07,29.07,0,0,1,37,1.35,24.55,24.55,0,0,0,20.75,2.7ZM34,13.17,34,12.41a6.15,6.15,0,0,0-1.84-1.15,2.41,2.41,0,0,0-2.49,2.41c.08.51,1.13,1.36,1.45,1.24A16.5,16.5,0,0,0,34,13.17ZM15.62,4.71c1.77,1,2.79.58,3.77-2ZM34.77,9.83c.3,1.3.94,1.8,2,1.48.49-.16.85-.68,1.28-1l-.31-.43ZM58.47,46l-.53-.34C57.28,47,55.8,48,56.72,50Z"/></g></g></svg>