<svg xmlns="http://www.w3.org/2000/svg" viewBox="0 0 53.46 62.59"><defs><style>.cls-1{fill:#f6cdb3;}</style></defs><title>Asset 15</title><g id="Layer_2" data-name="Layer 2"><g id="Layer_1-2" data-name="Layer 1"><path class="cls-1" d="M40.08,50.8,53.46,62.13l-.15.45H50c-4.13,0-8.27.06-12.4-.05a3.58,3.58,0,0,1-2.55-1.12c-2.41-3.44-5.74-4.61-9.77-5a14.59,14.59,0,0,1-6.24-2.63A25.38,25.38,0,0,1,8.43,37.59c-.12-.53,0-1.53.31-1.65a2.22,2.22,0,0,1,1.94.1A16.38,16.38,0,0,1,13,38.9C14.44,41,15.85,43,17.29,45.11a16.44,16.44,0,0,0,2.17,3c1,.86,2.18,1.89,3.34,1.95a64.56,64.56,0,0,0,9.34-.35c1.75-.17,2.53-1.5,2.74-3.81a16.54,16.54,0,0,1,.29-2.45A7.69,7.69,0,0,0,35,39.1a12,12,0,0,1-.24-4.34c0-.54.81-1,1.24-1.52.43.44,1,.8,1.25,1.32.55,1.36.91,2.81,1.39,4.2.65,1.89,1.3,3.8,2,5.65S41.48,47,40.08,50.8Z"/><path class="cls-1" d="M26,0A22.76,22.76,0,0,1,33.5,16.75a2.64,2.64,0,0,1-.86,1.59c-1,1-2.09,1.75-3,2.74-2.43,2.64-4.17,5.51-2.43,9.24-2.35.81-2.87.44-2.84-1.83a8.57,8.57,0,0,0-3.83-7.08c-2.63-1.94-2.66-4.35-2-6.89a30,30,0,0,1,2.6-6C22.65,5.71,24.32,2.94,26,0Z"/><path class="cls-1" d="M0,15.71c3.7.36,7.38.58,11,1.11,5.18.75,8.91,3.85,11.77,8,1.25,1.83,1.75,3.94.29,6s-3.67,2.38-5.88,1.73A24.56,24.56,0,0,1,.92,18.46C.56,17.66.31,16.8,0,16,0,15.82,0,15.64,0,15.71Z"/><path class="cls-1" d="M50.57,14.43a20.66,20.66,0,0,1-6.9,11.45A64.25,64.25,0,0,1,36,30.94a8.54,8.54,0,0,1-2.86.86c-2.09.39-4.06.09-5.4-1.75a4.82,4.82,0,0,1,0-5.67c2.91-4.64,6.86-7.91,12.48-8.69C43.67,15.23,47,14.86,50.57,14.43Z"/><path class="cls-1" d="M25.75,49.84c-4.19,0-5.7-.86-6.31-3.17-.11-.42-.15-1.16.08-1.32A14,14,0,0,1,23.3,43.2c1.06-.3,2.33.14,3.51.25.11,0,.26.07.34,0,2.48-1.68,4.22.74,6.3,1.21a1.74,1.74,0,0,1,.81,1.51c-.34,1.16-.31,2.77-2,3C29.8,49.48,27.33,49.68,25.75,49.84Z"/><path class="cls-1" d="M13.4,37.22a20.66,20.66,0,0,1,2.69,2.29,26.22,26.22,0,0,1,2.68,3.91,5.72,5.72,0,0,1,.31,2l-.92.36-5.5-7.87Z"/><path class="cls-1" d="M16.81,39.49c2.06-.55,5.09,1.27,5.23,2.93,0,.48-.51,1.15-1,1.47a1.4,1.4,0,0,1-1.36-.24C18.71,42.38,17.85,41,16.81,39.49Z"/><path class="cls-1" d="M25.37,31.48c1.41,1.49,1.64,8.89,0,11.15Z"/></g></g></svg>