<svg xmlns="http://www.w3.org/2000/svg" viewBox="0 0 66.47 62.31"><defs><style>.cls-1{fill:#f6cdb3;}</style></defs><title>Asset 16</title><g id="Layer_2" data-name="Layer 2"><g id="Layer_1-2" data-name="Layer 1"><path class="cls-1" d="M66.47,24.18v8c-2.2,0-4.32.07-6.42,0-1.39-.07-1.84.39-1.82,1.8.06,6.91,0,13.83,0,20.74,0,5.17-2.44,7.6-7.62,7.61q-18.17,0-36.34,0c-5.09,0-7.53-2.45-7.54-7.49,0-6.91,0-13.83,0-20.74,0-1.45-.38-2-1.89-1.91s-3.17,0-4.89,0v-8H4.46c2.31,0,2.31,0,2.46-2.35A8.36,8.36,0,0,1,7.08,21c.69,0,1.37-.09,2.06-.09,15.72,0,31.44,0,47.15,0,1.49,0,2.43.2,2.13,2-.19,1.14.48,1.39,1.48,1.37C62.07,24.15,64.24,24.18,66.47,24.18ZM12.17,40.55c0,4.26,0,8.51,0,12.77,0,2.18.8,3.3,2.32,3.33s2.43-1.15,2.43-3.41c0-3.07,0-6.15,0-9.22q0-8.16,0-16.32c0-1.45-.44-2.59-2-2.93s-2.74.86-2.76,2.83C12.15,31.92,12.17,36.24,12.17,40.55Z"/><path class="cls-1" d="M40.58,9.34c14.44,3,17,4.11,17.41,7.4H7.07l-.38-.4c.78-.84,1.4-2.06,2.37-2.46,3.31-1.36,6.72-2.49,10.12-3.6a13.74,13.74,0,0,1,3.66-.6c1.48-.06,1.93-.57,2-2.12a7.68,7.68,0,0,1,10.56-7,7.45,7.45,0,0,1,5,6.91c0,.53,0,1.06.07,1.59C40.43,9.12,40.48,9.16,40.58,9.34Zm-11-.94a3.53,3.53,0,0,0,1.27.77,16.87,16.87,0,0,0,2.83,0c1.79,0,2.41-1,1.57-2.57a2.83,2.83,0,0,0-3.41-1.56C30.43,5.43,29.67,6.43,29.58,8.4Z"/></g></g></svg>