<svg xmlns="http://www.w3.org/2000/svg" viewBox="0 0 63.69 63.53"><defs><style>.cls-1{fill:#f6cdb3;}</style></defs><title>Asset 7</title><g id="Layer_2" data-name="Layer 2"><g id="Layer_1-2" data-name="Layer 1"><path class="cls-1" d="M47.78,28.66,43.78,39,40.5,29.73c-.79.73-1.39,1.26-2,1.82L8.17,61.87C5.34,64.7,1.6,63.82.22,60c-.63-1.75.14-3.05,1.36-4.27Q13.9,43.47,26.18,31.17l7-7c.36-.36.69-.77,1.25-1.38l-9-3.52-.07-.46,9.88-3.3L31.05,6l.26-.32,9.4,4.66,4-10.3,3.47,10.48,9.57-4.14.32.27-4.68,9.32,10.26,4L53.26,23.49,57.41,33l-.27.35ZM26.83,33.88a20.76,20.76,0,0,0,2.44,1.79,1.59,1.59,0,0,0,1.44,0q6.46-6.32,12.8-12.77a1.48,1.48,0,0,0,.23-1.36c-1-1.92-2.15-2.06-3.66-.55-.84.83-1.67,1.68-2.51,2.5Z"/><path class="cls-1" d="M62.66,55.48c-1.66.73-3.67,1.11-4.88,2.3s-1.5,3.12-2.47,5c-.89-4-3.11-6.64-7.75-7a32.4,32.4,0,0,0,8.09-8.06c.64,4.36,3,6.83,7.21,7.36Z"/><path class="cls-1" d="M40.48,43.35a6.25,6.25,0,0,0,4.64,4.57c-2.26.81-4,1.94-4.49,4.59C39.81,50.11,38.49,48.56,36,48,38.18,47.08,40.09,46.06,40.48,43.35Z"/></g></g></svg>