<svg xmlns="http://www.w3.org/2000/svg" viewBox="0 0 66.69 62.79"><defs><style>.cls-1{fill:#f6cdb3;}</style></defs><title>Asset 18</title><g id="Layer_2" data-name="Layer 2"><g id="Layer_1-2" data-name="Layer 1"><path class="cls-1" d="M0,35.6Q0,24,0,12.37c0-2.49,1.2-3.92,3.7-4,4.25-.11,8.51-.12,12.76,0,2.65.07,4.07,1.85,4.07,4.8q0,19.86,0,39.71c0,1.83,0,3.67,0,5.5a4.08,4.08,0,0,1-4.34,4.35q-6.11.1-12.23,0c-2.72,0-4-1.41-4-4.1Q0,47.12,0,35.6ZM10,16.72c1.65,0,3.32-.09,5,0s1.52-.9,1.45-1.93.53-2.37-1.44-2.31c-2.83.08-5.67,0-8.51,0s-2.8,0-2.66,2.9c0,1,.45,1.33,1.4,1.31C6.77,16.69,8.37,16.72,10,16.72Zm6.42,8.4a17.65,17.65,0,0,0-.05-3.06c-.08-.44-.7-1.09-1.09-1.1Q10.11,20.84,5,21c-.4,0-1,.64-1.13,1.09a4.25,4.25,0,0,0,0,2.1c.09.38.61.92.94.93C8.56,25.15,12.32,25.12,16.38,25.12ZM8.24,48.58v-.84c-.76-.56-1.46-1.43-2.3-1.59A1.75,1.75,0,0,0,3.87,48c-.06,1.32.74,2.27,2,2.09C6.73,50,7.46,49.11,8.24,48.58Z"/><path class="cls-1" d="M8.1,4.16C8.53,1.25,9.86,0,12.46,0,17.31,0,22.15,0,27,0H61.22c4.07,0,5.47,1.37,5.47,5.38q0,17.64,0,35.28c0,3.91-1.41,5.34-5.35,5.34-11.52,0-23,0-34.57,0-1.52,0-2.15-.36-2-2a30.1,30.1,0,0,0,0-4.61c-.09-1.38.36-1.83,1.79-1.82,9.87.06,19.74,0,29.61,0,1.6,0,3.19-.05,4.79,0,1.11,0,1.58-.29,1.57-1.48,0-10.16-.05-20.33,0-30.49,0-1.7-1-1.56-2.05-1.56H8.1ZM37.76,39.49h-.85c-.53.77-1.37,1.49-1.53,2.33-.24,1.22.68,2,1.88,2.09s2.35-1,2.06-2.09A8.55,8.55,0,0,0,37.76,39.49Z"/><path class="cls-1" d="M26.94,58.45a3.61,3.61,0,0,1,2.6-3.67c1.35-.39,1.58-1.06,1.55-2.27-.05-2.29,0-2.3,2.33-2.3,2.84,0,5.68.06,8.51,0,1.35,0,1.84.45,1.68,1.75s0,2.49,1.79,3a3.18,3.18,0,0,1,2.23,3.53Z"/></g></g></svg>