<svg xmlns="http://www.w3.org/2000/svg" viewBox="0 0 66.61 45.89"><defs><style>.cls-1{fill:#f6cdb3;}</style></defs><title>Asset 9</title><g id="Layer_2" data-name="Layer 2"><g id="Layer_1-2" data-name="Layer 1"><path class="cls-1" d="M0,11.87V0C1.66,2.57,3.88,2.06,6,2.06q18.89,0,37.77,0c1.25,0,2.3.08,3,1.37.44.88,1.16.94,2.09.47a15,15,0,0,1,3.32-1.18,1.75,1.75,0,0,1,2.3,1.4C54.65,5.32,54,6,52.84,6.31a5.66,5.66,0,0,0-2,.76c-.63.51-1.51,1.35-1.43,1.93a2.92,2.92,0,0,0,1.66,2,32.21,32.21,0,0,0,4.71,1,52.69,52.69,0,0,0-5.12,5.53c-1.34,1.9-2.06,4.22-3.16,6.31a9,9,0,0,1-2.06,3c-5.22,4.09-13.84,2.72-16.87-2.66a9.6,9.6,0,0,1-1.16-4c-.24-4.16-2.25-6.79-6.4-7.75a17.76,17.76,0,0,0-3.86-.4C11.52,11.85,5.85,11.87,0,11.87Zm40.63,3.8c-3-1.39-7.21-.07-8.61,2.61a3.56,3.56,0,0,0,.34,4c2.58,3.56,9.22,3.55,11.8,0a3.42,3.42,0,0,0-1-5.16,7.34,7.34,0,0,1-.95,1.66,33.13,33.13,0,0,1-4.09,3.72c-.39.28-1.46-.38-2.22-.6.37-.62.6-1.55,1.15-1.82C39,19.1,39.83,17.45,40.63,15.67Zm-2.81-8h0a41.26,41.26,0,0,0,4.24-.05c.49-.05.92-.69,1.38-1.06-.46-.43-.9-1.22-1.38-1.25-2.77-.12-5.55-.13-8.32,0-.5,0-1,.77-1.47,1.18.49.4.94,1.08,1.47,1.15A33.15,33.15,0,0,0,37.82,7.69Zm.07,1.67a33.93,33.93,0,0,0-4.06.05c-.55.07-1,.72-1.53,1.1.52.43,1,1.2,1.58,1.23,2.7.13,5.42.12,8.12,0,.5,0,1-.77,1.45-1.18-.5-.4-1-1.07-1.49-1.14A34,34,0,0,0,37.89,9.35Z"/><path class="cls-1" d="M66.6,31.71q0,4.08,0,8.15a6.13,6.13,0,0,1-8,5.73A8.17,8.17,0,0,1,53,38a79.15,79.15,0,0,0-1.36-8.91A3.9,3.9,0,0,0,50.5,26.8c-1.59-1.13-1.1-2.37-.61-3.72,1.45-4,3.58-7.44,7.6-9.38,1.16-.56,2.23-.6,3.06.36q2.94,3.39,5.7,6.93a3.32,3.32,0,0,1,.34,1.86C66.62,25.8,66.6,28.76,66.6,31.71Z"/></g></g></svg>