<svg xmlns="http://www.w3.org/2000/svg" viewBox="0 0 66.84 62.97"><defs><style>.cls-1{fill:#f6cdb3;}</style></defs><title>Asset 14</title><g id="Layer_2" data-name="Layer 2"><g id="Layer_1-2" data-name="Layer 1"><path class="cls-1" d="M52.91,20.12c.36.23.64.43.94.6,4.73,2.7,6.84,6.88,6.75,12.21A30.73,30.73,0,0,1,.45,41.09a10,10,0,0,1-.33-2.62c0-2.78.17-5.57-.05-8.33-.68-8.49,3.25-14.91,9-20.54A12.22,12.22,0,0,1,19.47,6.17,12.71,12.71,0,0,1,30.71,17.83c0,.59,0,1.18.07,1.77a4.41,4.41,0,0,0,2.75,4.19c1.8.76,3.33.21,5-.8,6-3.65,9.88-9.61,15.61-13.49.54-.36,1-.86,1.53-1.2a3.23,3.23,0,0,0,1.79-3.08,3.62,3.62,0,0,1,2.73-3.56C62.26,1,64.39.57,66.63,0c.39,3.06.31,5.85-1,8.46-.77,1.54-2.22,2-3.85,2.09a2.35,2.35,0,0,0-1.53.49C57.8,14,55.43,17,52.91,20.12ZM25.11,18a6.47,6.47,0,0,0-6.19-6.09,4.27,4.27,0,0,0-4.41,4.49,6.46,6.46,0,0,0,6.18,6.09A4.3,4.3,0,0,0,25.11,18ZM18.36,51.61a4.83,4.83,0,1,0-.14-9.66,4.83,4.83,0,0,0,.14,9.66ZM16,34.27a4.81,4.81,0,1,0-4.75,5A4.82,4.82,0,0,0,16,34.27ZM35.21,53.48a4.82,4.82,0,1,0-4.86,4.83A4.84,4.84,0,0,0,35.21,53.48Zm19-18.94a4.83,4.83,0,1,0-4.88,4.81A4.81,4.81,0,0,0,54.19,34.54ZM47.34,46.59a4.83,4.83,0,1,0-4.78,4.89A4.78,4.78,0,0,0,47.34,46.59Zm-15.71-11,.51.46,18.2-16.72-1.76-2.15Zm33.51-33c-1.74.48-3.16.6-4.25,1.27A3,3,0,0,0,59.7,6.36a3.38,3.38,0,0,0,2.16,1.86c1,.31,1.88-.41,2.17-1.58S64.68,4.27,65.14,2.55Zm-7.32,8-.63-.58-5.72,4.51L53,16.61Z"/></g></g></svg>