<svg xmlns="http://www.w3.org/2000/svg" viewBox="0 0 66.98 59.21"><defs><style>.cls-1{fill:#f6cdb3;}</style></defs><title>Asset 6</title><g id="Layer_2" data-name="Layer 2"><g id="Layer_1-2" data-name="Layer 1"><path class="cls-1" d="M10.36,32C8,34,5.72,36,3.37,38c-.7.59-1.34,1.67-2.48.47S-.32,36.12.56,35.12c3.55-4,7.23-7.94,10.9-11.86a1.93,1.93,0,0,1,1.28-.4c3.31,0,6.62-.08,9.93,0a2.91,2.91,0,0,1,1.85,1c3,3.61,6,7.29,9,10.94a9.89,9.89,0,0,0,.88.82c3.08-3.7,6.14-7.29,9.08-11a4.77,4.77,0,0,1,4.46-2.13c2.7.2,5.44,0,8.15.1a3.22,3.22,0,0,1,2.13,1.09c2.75,3.54,5.41,7.15,8.05,10.78A8,8,0,0,1,67,36.48a8.79,8.79,0,0,1-2.34.54,3.09,3.09,0,0,1-2-.78C60.8,34,59.12,31.68,57.09,29c-.38,2.25-.83,3.95.18,5.79,2,3.72,3.9,7.51,6,11.58H56.48c0,3.68,0,7.15,0,10.61,0,.48.68.94,1.43,1.9-1.92,0-3.49.06-5-.07-.21,0-.47-1-.48-1.51,0-3.13-.06-6.27,0-9.4,0-1.29-.45-1.73-1.87-1.34V59c-1.57,0-3,0-4.34,0-.26,0-.72-.21-.72-.32a1.9,1.9,0,0,1,.34-.84c.19-.32.59-.62.59-.94,0-3.41,0-6.83,0-10.39H37.8c.63-1.22,1.09-2.2,1.63-3.13,1.79-3.05,3.75-6,5.34-9.17.56-1.1.26-2.64.36-4L44.54,30q-2.67,3-5.35,6a10.37,10.37,0,0,1-1.51,1.73,8.49,8.49,0,0,1-2.22.92c-.26.09-.64-.11-.87,0-2.39,1.17-3.69-.38-5.06-1.91s-2.69-2.9-4-4.35l-.51.27c0,.61-.1,1.22-.11,1.83,0,3.49,0,7,0,10.46,0,.93-.08,1.6-1.29,1.61-.33,0-.93.69-.94,1.07-.08,3.07-.06,6.15,0,9.22,0,.36.42.72.65,1.08l.49.78c-.29.14-.58.29-.89.41a1,1,0,0,1-.35,0c-4.83,0-3.81.53-3.9-3.72,0-2.36,0-4.73,0-7.09,0-.73.39-1.83-1-1.79s-.88,1.18-.89,1.87q-.08,4.61,0,9.22c0,1.14-.34,1.62-1.52,1.55s-2.4,0-3.49,0c1.66-4,.56-8,.86-11.76,0-.24-.21-.72-.34-.72-1.95-.12-1.35-1.58-1.37-2.63,0-3.94,0-7.88,0-11.82Z"/><path class="cls-1" d="M37.92,22.07a3.83,3.83,0,0,1-3.83-2.88,5.14,5.14,0,0,1,1.63-5.62,10.06,10.06,0,0,1,3.54-1.91,2.13,2.13,0,0,0,1.75-2,21.79,21.79,0,0,1,1-4.3,7.44,7.44,0,0,1,5.75-5C54.36-1.13,59.85,2.4,61.21,9a3.26,3.26,0,0,0,2.22,2.71c2.21.93,3.94,2.39,3.41,5.25a13,13,0,0,0,0,2.3c0,2.56-.39,2.88-3,2.68l-1.89-7.23-.61,0c-1.92,5.18-5.57,8-11,7.57-3.9-.29-7.49-2-9.58-8.46C38.29,16.1,38,19,37.92,22.07Zm13.61-10.4-.28-3.49c-1.49,1.37-1.84,3.57-4,3.76l-.81-3.1a23,23,0,0,1-1.64,2.3c-1.38,1.47-1.67,2.56-.39,4.2a12.67,12.67,0,0,0,3.87,3.51A6.47,6.47,0,0,0,55.49,18c2.1-1.57,3.42-3.52,3.15-6.34h-7.1Z"/><path class="cls-1" d="M26.45,10c-.07,2.91-.17,5.79-2.25,8.18a9.17,9.17,0,0,1-9.84,2.63,9,9,0,0,1-6-7.61A23.43,23.43,0,0,0,7.9,9.72a3.43,3.43,0,0,1,1.57-4C11.63,4.23,13.9,3,16.69,3.35c2.05.24,4.12.34,6.16.67,3,.48,3.75,1.54,3.68,4.6C26.52,9.09,26.48,9.56,26.45,10Zm-8.94,9.33c3.32,0,6.7-3.25,6.68-6.51a1.86,1.86,0,0,0-.8-1.46c-2.64-1-5.4.51-8.11-.33-.84-.26-1.9.29-2.86.27s-1.5.31-1.49,1.4A7,7,0,0,0,17.51,19.36Z"/></g></g></svg>