<svg xmlns="http://www.w3.org/2000/svg" viewBox="0 0 42.65 63.92"><defs><style>.cls-1{fill:#f6cdb3;}</style></defs><title>Asset 17</title><g id="Layer_2" data-name="Layer 2"><g id="Layer_1-2" data-name="Layer 1"><path class="cls-1" d="M30.61,63.34A22.05,22.05,0,0,0,35.53,51c.33-3.77.34-3.77-3.32-3.82a33,33,0,0,1-3.37-.06,8.09,8.09,0,0,0-6.86,2A1.4,1.4,0,0,1,19.7,49a5.72,5.72,0,0,0-5.42-1.81,50.16,50.16,0,0,1-6.19.29c-1.34,0-1.94.67-1.79,1.8a32.66,32.66,0,0,0,1.39,7.2c.87,2.28,2.46,4.28,3.73,6.41.14.23.26.47.38.7l-.39.32c-1.35-1.41-2.84-2.73-4-4.26A34.46,34.46,0,0,1,.17,38.72C-.11,26.14,0,13.55,0,1A5.64,5.64,0,0,1,.25,0c.57.66,1,1.11,1.38,1.59C4.38,5,7.14,8.38,9.84,11.82a1.62,1.62,0,0,0,2.35.57,21.24,21.24,0,0,1,17.87-.11,2,2,0,0,0,2.78-.72C35.91,7.76,39,4,42.34,0a5.21,5.21,0,0,1,.32,1.15C42.45,14,42.45,26.93,42,39.8A33.32,33.32,0,0,1,33.66,61c-.81.92-1.77,1.71-2.66,2.56Zm.81-23.09C33.17,40,36,37.47,36.1,35.88s-.71-2.64-1.93-2.31c-2.78.74-5.51,1.71-8.23,2.68-.21.07-.34,1.19-.21,1.26C27.6,38.48,29.51,39.35,31.42,40.25ZM16.94,37.32l.13-.63a6.35,6.35,0,0,0-.92-.48c-2.63-.89-5.23-1.85-7.9-2.59-1.49-.41-2.48.8-2.26,2.47.17,1.29,2.93,3.89,4.22,3.86C12.82,39.9,14.73,38.26,16.94,37.32Z"/></g></g></svg>