<svg xmlns="http://www.w3.org/2000/svg" viewBox="0 0 48.13 63.78"><defs><style>.cls-1{fill:#f6cdb3;}</style></defs><title>Asset 11</title><g id="Layer_2" data-name="Layer 2"><g id="Layer_1-2" data-name="Layer 1"><path class="cls-1" d="M27.45,13.4c.83,0,1.46.1,2.1.1,5.56,0,11.12,0,16.67,0,1.48,0,2,.44,1.9,1.91s0,2.93,0,4.58H27.46c0,.87,0,1.55,0,2.23,0,13.18,0,26.37,0,39.55,0,1.51-.33,2.06-2,2C21,63.69,21,63.76,21,59.25q0-18.36,0-36.71c0-.75,0-1.51,0-2.48H0c0-2-.09-3.84.08-5.63,0-.36,1.08-.89,1.66-.9,5.67-.07,11.35-.11,17,0,1.68,0,2.27-.39,2.2-2.14-.14-3.25,0-6.5-.06-9.75C20.9.38,21.37,0,22.58,0c4.87-.09,4.87-.13,4.87,4.75C27.45,7.59,27.45,10.42,27.45,13.4Z"/></g></g></svg>