<svg xmlns="http://www.w3.org/2000/svg" viewBox="0 0 64.1 64.01"><defs><style>.cls-1{fill:#f6cdb3;}</style></defs><title>Asset 13</title><g id="Layer_2" data-name="Layer 2"><g id="Layer_1-2" data-name="Layer 1"><path class="cls-1" d="M0,32A32,32,0,1,1,32.1,64,32,32,0,0,1,0,32ZM21,4.66a5.92,5.92,0,0,0-.66.19A29.59,29.59,0,0,0,2.88,37.06c2.3,13.36,14,23.81,27.39,24.39,7.61.33,14.48-5.25,15.31-12.44.87-7.57-4.25-14.27-12-15.66-1.56-.28-3.18-.26-4.76-.47a15.75,15.75,0,0,1-13.4-17.21A18,18,0,0,1,21,4.66ZM36,17.19a4,4,0,0,0-8-.13,4.09,4.09,0,0,0,4,4.09A4,4,0,0,0,36,17.19Z"/><path class="cls-1" d="M32.11,51.77a4,4,0,1,1,3.91-4A4,4,0,0,1,32.11,51.77Z"/></g></g></svg>