<svg xmlns="http://www.w3.org/2000/svg" viewBox="0 0 66.8 54.61"><defs><style>.cls-1{fill:#f6cdb3;}</style></defs><title>Asset 10</title><g id="Layer_2" data-name="Layer 2"><g id="Layer_1-2" data-name="Layer 1"><path class="cls-1" d="M64.4,17.3c1.95.13,2.42,1.27,2.41,2.82,0,3.05,0,6.1-.3,9.21l-1.32-3.69h-.41L63,31.26a37.67,37.67,0,0,1-1.28,4.05c-.32.72-1,1.67-1.63,1.76s-1.3-.85-1.94-1.37a3.68,3.68,0,0,1-.5-.77c-.41.43-.78.77-1.09,1.16-6.21,7.53-13.85,13.34-22.23,18.22a2.45,2.45,0,0,1-2.06.13c-9.48-5.51-18.08-12.07-24.54-21.1-.61-.86-1.16-1.77-1.93-3a15,15,0,0,1-1.48,2.73c-.5.59-1.56,1.39-2,1.21A4.48,4.48,0,0,1,.19,32.21c-.37-.82-.08-1.93-.08-3.14L2,30.15l1.87-3.48,1.9,3.4L7.72,26.5c1.06,2.34,2,4.36,2.88,6.38,1.33,2.92,2.38,3.05,4.31.56.71-.92,1.43-1.82,2.35-3L20.93,37a28,28,0,0,0,1.84,3.23c.47.63,1.35,1.43,2,1.36s1.38-1,1.59-1.77C27.48,35.91,28.49,32,29.57,28c.21-.76.45-1.52.82-2.76a41.07,41.07,0,0,0,2.09,3.82c.56.81,1.38,2,2.11,2S36.23,30,36.7,29.12c1.54-2.71,2.91-5.52,4.55-8.69.25.79.42,1.18.49,1.58.79,4.18,1.51,8.38,2.38,12.54.2,1,.78,2.43,1.39,2.54.84.15,2-.6,2.78-1.27,2.32-2.08,4.5-4.31,7-6.71l2.52,5.42c3.72-5.12,6.26-10.3,6.55-16.37l-.66-.25-4,12.59c-.8-1.81-1.36-3.13-2-4.44-.86-1.85-1.94-2.08-3.41-.7-1.9,1.78-3.74,3.62-5.61,5.42-.41.39-.84.76-1.53,1.39-.36-1.82-.66-3.3-.94-4.78-.73-3.89-1.45-7.78-2.18-11.68-.2-1-.33-2.42-1.67-2.32a3.41,3.41,0,0,0-2.12,1.72c-1.89,3.4-3.62,6.89-5.59,10.68-.76-1.35-1.38-2.44-2-3.54a9.62,9.62,0,0,0-1-1.86c-.54-.6-1.43-1.53-1.92-1.4a3.07,3.07,0,0,0-1.69,1.9c-1.17,3.9-2.17,7.86-3.24,11.79-.21.77-.44,1.53-.82,2.84l-4.36-7.81c-1.56-2.79-2.47-2.85-4.41-.28l-2,2.69c-.63-1.32-1.16-2.39-1.66-3.48-.75-1.61-1.41-3.26-2.23-4.83S7,20.3,6.14,21.8C5.42,23.07,4.82,24.41,4,26a9.69,9.69,0,0,1-.67-1.2,22.49,22.49,0,0,1-1-12.22C4.1,4,10.66-.66,19.82.08a22.46,22.46,0,0,1,12,4.48,2,2,0,0,0,2.87,0A22.31,22.31,0,0,1,50,.08c8.39.59,14,6.39,14.44,14.9C64.43,15.68,64.4,16.39,64.4,17.3Z"/></g></g></svg>