<svg xmlns="http://www.w3.org/2000/svg" viewBox="0 0 58.35 58.29"><defs><style>.cls-1{fill:#f6cdb3;}</style></defs><title>Asset 5</title><g id="Layer_2" data-name="Layer 2"><g id="Layer_1-2" data-name="Layer 1"><path class="cls-1" d="M58.34,29.39A29.17,29.17,0,1,1,29.63,0,29.22,29.22,0,0,1,58.34,29.39ZM25.18,45.26a48.44,48.44,0,0,0,5.24-.05A3.27,3.27,0,0,0,32.52,44c1.68-2.43,3.14-5,4.77-7.47a1.79,1.79,0,0,0,0-2.38A24.61,24.61,0,0,1,34.3,30c-1.71-3.65-4.53-4.32-8.33-4.67-4.59-.42-6.87,1.16-9.14,5-2.15,3.61-2.59,6.19-.18,9.91S20.9,46.86,25.18,45.26ZM42.05,14.51c-5.68,0-5.68,0-7.61,4.68a2.61,2.61,0,0,1-.21.49c-2.72,4-1.9,7.33,1,11.16,2.33,3.06,4.48,4.33,8.33,4.21C47,35,49,34.16,50,30.77c.64-2.18,2.62-4.28,2.47-6.29s-2.38-3.82-3.42-5.85C47.44,15.42,45.28,13.44,42.05,14.51ZM9.94,34.59c2.89,1.15,4.55-.12,5.57-2.65A7.43,7.43,0,0,1,16,31c1.16-2,3.12-3.91,3.26-6S17.58,20.75,17,18.49c-.78-3.14-2.59-4-5.68-4-2.51,0-4.35.37-5.2,3a7,7,0,0,1-1.19,2.17C2.22,23,2.23,26.38,4,30.38,5.26,33.38,6.29,35.62,9.94,34.59ZM40.66,14.08c1.74,0,3,0,4.34,0,.95,0,1.4-.34,1.37-1.35,0-1.59.08-3.19,0-4.78a2.37,2.37,0,0,0-.82-1.58A26.75,26.75,0,0,0,32.48,1.28a4.48,4.48,0,0,0-5.31,4c-.08.41-.3.85-.2,1.21a3.92,3.92,0,0,0,.91,2c1.54,1.18,3.32,2.05,4.86,3.24C35.24,13.62,37.9,14.72,40.66,14.08ZM38.79,51.93c-4.14-3.91-7.47-7.36-13-6.19a29.31,29.31,0,0,1-4.6.1,2.58,2.58,0,0,0-1.62.46c-1.25,1.31-2.36,2.74-3.62,4.24,2,1.8,3.88,3.47,5.77,5.05a2.64,2.64,0,0,0,1.48.45c3,.16,6,.31,9,.37a3.29,3.29,0,0,0,1.9-.63C35.67,54.6,37.14,53.3,38.79,51.93ZM12.19,14.17c2.31.57,4.52-.35,6.63-1.83a34.83,34.83,0,0,1,4.84-2.92,5.12,5.12,0,0,0,3.15-4.63C27,2.36,26,1.15,23.55,1.65A26.7,26.7,0,0,0,8.23,10.54a4.09,4.09,0,0,0-.37,2.91c0,.33,1.21.58,1.89.7A16,16,0,0,0,12.19,14.17ZM57.28,28.53a17.39,17.39,0,0,0-.21-2.42c-.12-.55-.5-1.47-.81-1.48-1,0-2.62-.09-2.91.46-1.76,3.26-3.22,6.69-4.76,10.07a1.38,1.38,0,0,0,0,.7,68.56,68.56,0,0,0,1,7c.17.71,1.29,1.34,2.11,1.69.33.14,1.22-.47,1.52-1A27.86,27.86,0,0,0,57.28,28.53ZM51.95,45.61c-2-1.44-2.13-1.45-3.86-.3-2.61,1.73-5.33,3.32-7.79,5.25-2.15,1.69-4,3.78-6,5.69l.4.42A28,28,0,0,0,51.95,45.61ZM1.76,25.3c-.32.47-.47.59-.49.73A27.14,27.14,0,0,0,5.15,43.67c.18.3.72.38,1.09.57.13-.42.42-.86.36-1.24a66,66,0,0,0-1.4-7.84C4.28,31.9,3,28.75,1.76,25.3ZM20.48,55.62c-.12-.28-.14-.49-.26-.59-4.14-3.39-8.29-6.78-12.47-10.12-.28-.22-.83-.1-1.25-.14.09.46,0,1,.31,1.37a27.64,27.64,0,0,0,12.77,9.38A4.27,4.27,0,0,0,20.48,55.62Z"/></g></g></svg>