<svg xmlns="http://www.w3.org/2000/svg" xmlns:xlink="http://www.w3.org/1999/xlink" version="1.1" x="0px" y="0px" viewBox="0 0 512 640" style="enable-background:new 0 0 512 512;" xml:space="preserve"><g><path d="M376.252,35.614c-30.262,0-53.609,6.705-73.479,21.1c-16.508,11.96-30.945,29.415-46.305,56.108   c-15.358-26.692-29.794-44.146-46.3-56.108c-19.864-14.395-43.203-21.1-73.448-21.1c-68.254,0-123.783,50.457-123.783,112.478   c0,49.592,24.78,103.609,75.755,165.138c45.084,54.418,106.059,109.618,165.026,163.001l2.75-2.906l-2.685,2.966   c0.762,0.689,1.723,1.034,2.685,1.034c0.961,0,1.922-0.345,2.684-1.034c58.972-53.371,119.951-108.559,165.08-163.03   c50.983-61.537,75.767-115.563,75.767-165.168C499.999,86.071,444.486,35.614,376.252,35.614z"/></g><text x="0" y="527" fill="#000000" font-size="5px" font-weight="bold" font-family="'Helvetica Neue', Helvetica, Arial-Unicode, Arial, Sans-serif">Created by ibrandify</text><text x="0" y="532" fill="#000000" font-size="5px" font-weight="bold" font-family="'Helvetica Neue', Helvetica, Arial-Unicode, Arial, Sans-serif">from the Noun Project</text></svg>