<svg xmlns="http://www.w3.org/2000/svg" data-name="Layer 1" viewBox="0 0 100 125" x="0px" y="0px"><title>Artboard 4</title><path d="M60.86,57.5c0-2.3,1.38-4.31,3-4.31s3,2,3,4.31-1.38,4.31-3,4.31S60.86,59.8,60.86,57.5ZM36.19,46.81c1.57,0,3-2,3-4.31s-1.38-4.31-3-4.31-3,2-3,4.31S34.62,46.81,36.19,46.81ZM5,45.28l1.81-1.59a6.14,6.14,0,0,0,1.61-7l-.93-2.23a6.14,6.14,0,0,1,4-8.28l2.33-.65A6.14,6.14,0,0,0,18.27,20l.13-2.41a6.14,6.14,0,0,1,6.12-5.81,6.21,6.21,0,0,1,1.09.1l2.38.43a6.14,6.14,0,0,0,6.46-3.09L35.6,7.06a6.13,6.13,0,0,1,9-2l2,1.41a6.14,6.14,0,0,0,7.16,0l2-1.4a6.14,6.14,0,0,1,9,2.07l1.15,2.12a6.14,6.14,0,0,0,5.4,3.22,6.07,6.07,0,0,0,1-.09L74.6,12a6.22,6.22,0,0,1,1.06-.09,6.14,6.14,0,0,1,6.12,5.85l.11,2.41a6.14,6.14,0,0,0,4.45,5.61l2.32.66a6.14,6.14,0,0,1,4,8.3l-.94,2.22a6.14,6.14,0,0,0,1.58,7l1.8,1.6a6.14,6.14,0,0,1,0,9.2l-1.81,1.59a6.14,6.14,0,0,0-1.61,7l.93,2.23a6.14,6.14,0,0,1-4,8.28l-2.33.65A6.14,6.14,0,0,0,81.73,80l-.13,2.41a6.14,6.14,0,0,1-6.12,5.81,6.21,6.21,0,0,1-1.09-.1L72,87.74a6.13,6.13,0,0,0-6.46,3.09L64.4,92.94a6.13,6.13,0,0,1-9,2l-2-1.41a6.14,6.14,0,0,0-7.16,0l-2,1.4a6.13,6.13,0,0,1-9-2.07l-1.15-2.12a6.14,6.14,0,0,0-6.44-3.13L25.4,88a6.22,6.22,0,0,1-1.06.09,6.14,6.14,0,0,1-6.12-5.85l-.12-2.41a6.14,6.14,0,0,0-4.45-5.61l-2.32-.66a6.14,6.14,0,0,1-4-8.3l.94-2.22a6.14,6.14,0,0,0-1.58-7l-1.8-1.6A6.14,6.14,0,0,1,5,45.28ZM54.49,57.5c0,5.89,4.18,10.69,9.32,10.69s9.32-4.79,9.32-10.69S69,46.81,63.81,46.81,54.49,51.61,54.49,57.5ZM38,64.93A3.19,3.19,0,1,0,43.54,68L62,35.07A3.19,3.19,0,1,0,56.46,32ZM26.86,42.5c0,5.89,4.18,10.69,9.32,10.69s9.32-4.79,9.32-10.69-4.18-10.69-9.32-10.69S26.86,36.61,26.86,42.5Z"/><text x="0" y="115" fill="#000000" font-size="5px" font-weight="bold" font-family="'Helvetica Neue', Helvetica, Arial-Unicode, Arial, Sans-serif">Created by Gregor Cresnar</text><text x="0" y="120" fill="#000000" font-size="5px" font-weight="bold" font-family="'Helvetica Neue', Helvetica, Arial-Unicode, Arial, Sans-serif">from the Noun Project</text></svg>